<svg width="24" height="23" viewBox="0 0 24 23" fill="none" xmlns="http://www.w3.org/2000/svg">
<path d="M11.3881 0C18.1983 0 23.4288 4.60677 23.4288 11.443C23.4288 18.316 18.1986 22.9974 11.3881 22.9974H3.74997C2.20738 22.9974 0.927734 21.9943 0.927734 20.2481V2.86058C0.927734 1.1144 2.20705 0 3.74997 0H11.3881Z" fill="#FF6900"/>
<path d="M4.59427 22.9997C6.54816 21.9359 7.51741 20.9611 8.18898 20.0461C9.49736 20.6194 10.7566 20.8658 11.8913 20.8658C14.0182 20.8658 15.8314 19.9025 16.7766 18.184C17.7496 17.6097 18.3947 16.4292 18.4352 15.5859C19.0413 14.8361 19.1532 13.89 18.9671 13.2513C18.9226 13.0988 18.7967 13.0946 18.5788 13.225C16.662 14.3548 14.8061 14.8933 13.0346 14.8933C11.9604 14.8933 10.8589 14.7254 9.6868 14.392C9.60327 13.1563 9.345 12.1208 9.24911 11.4929C9.11213 10.6637 9.30692 10.0503 10.2324 10.0503C10.9113 10.0503 12.1676 10.2199 13.1712 10.6686C14.1656 11.1132 14.7569 11.9884 15.1702 11.9884C15.338 11.9884 15.5147 11.8859 15.5147 11.5366C15.5147 10.829 15.2581 9.68959 14.939 9.28385C15.8692 9.23161 16.6082 9.24081 17.0239 9.28713C17.8899 9.43531 17.9307 9.86273 18.1014 10.1413C18.2718 10.4199 18.5611 10.5415 18.9089 10.5415C19.5531 10.5415 19.9547 10.2149 19.9547 9.03547C19.9547 6.44495 18.2918 5.18961 16.5474 5.18961C15.1154 5.18961 14.5625 5.49942 13.2027 5.49942C12.2381 5.49942 11.4389 3.56958 10.3427 3.31562C9.85853 2.25674 8.77267 2.13715 8.10378 2.66939C7.49636 2.30602 6.54682 2.50183 6.50773 3.17271C5.8091 2.96014 4.90667 3.33073 5.29557 4.23356C3.58726 4.2812 3.26852 5.76652 4.42755 5.93243C2.93541 6.76297 3.61733 8.19704 4.86958 7.89216C4.95779 8.91096 5.37776 10.5556 5.37776 11.6917C5.37776 13.2713 4.64907 13.638 3.65308 13.638C2.86592 13.638 1.71056 13.3567 0.927734 13.1373V14.2385C1.71991 14.4324 2.90801 14.6807 3.79942 14.6807C5.36941 14.6807 6.24044 13.775 6.24044 12.0501C6.24044 9.93206 5.55117 8.00649 5.77736 6.8001L5.72223 6.73012C4.93774 7.53504 4.42789 7.32215 4.37209 7.06293C4.26016 6.54384 5.17863 5.90878 5.70319 5.688C5.71321 5.65416 5.72658 5.61868 5.74094 5.58287C5.25013 5.65744 4.67346 5.59633 4.65341 5.25071C4.62969 4.84103 5.46564 4.47536 6.55818 4.56637C6.5789 4.54928 6.60028 4.5322 6.62133 4.51479C6.5525 4.48785 6.47933 4.45401 6.38711 4.40736C6.10479 4.26444 6.03596 4.02658 6.12851 3.8541C6.22975 3.66453 6.53847 3.59028 6.78939 3.59554C7.18263 3.60375 7.51708 3.69738 7.76165 3.79496C7.78938 3.78346 7.81711 3.77196 7.84351 3.76211C7.75263 3.69246 7.67378 3.61623 7.62767 3.5387C7.56018 3.4247 7.54347 3.26798 7.67445 3.16647C7.82714 3.04786 8.21504 3.00581 8.56552 3.31891C8.63802 3.38363 8.6995 3.44605 8.75496 3.5065C8.79405 3.49928 8.83314 3.49172 8.8729 3.48548C8.8151 3.39776 8.76899 3.30609 8.75396 3.22133C8.73358 3.10503 8.772 2.97986 8.91099 2.93583C9.06268 2.88754 9.25446 2.96409 9.35436 3.1093C9.46127 3.26503 9.52643 3.45624 9.56752 3.59258C8.79472 3.68096 6.74495 4.14124 6.74495 6.57735C6.74495 8.95301 8.75196 11.4483 8.75196 15.1302C8.74861 16.468 8.44858 17.8101 7.21504 19.3736C6.26249 20.581 4.7493 21.746 2.38981 22.7023C2.79475 22.8975 3.25883 23 3.74997 23H4.59427V22.9997ZM14.0379 8.05183C14.2738 7.35993 14.4793 6.83788 14.8622 6.43969C15.2658 6.02015 15.7142 5.88939 16.6981 5.88939C18.057 5.88939 19.1923 7.24001 19.1923 9.12845C19.1923 9.40902 18.8094 9.40705 18.6864 9.15046C18.224 8.34784 17.5979 8.23253 16.6119 8.16123C15.8842 8.11918 15.0062 8.17996 14.2067 8.21347C14.057 8.2207 14.0152 8.1182 14.0379 8.05183ZM9.70284 15.6283C10.778 15.922 12.2645 16.0787 13.4973 15.9936C15.6647 15.8441 17.2915 15.0507 18.2073 14.4728C17.6574 15.8392 15.5936 16.6881 13.5926 16.9283C13.5795 17.0278 13.5645 17.1247 13.5465 17.2187C15.0473 17.1402 16.4726 16.6605 17.1188 16.2226C16.7492 17.5666 14.9136 18.1067 13.2468 18.1846C13.1996 18.2901 13.1502 18.3899 13.0987 18.4842C14.0693 18.5013 14.9985 18.3242 15.5525 18.1527C15.054 19.0881 13.3346 19.827 11.5832 19.827C10.7222 19.827 9.64838 19.662 8.71621 19.2257C9.38977 18.0144 9.64938 16.7729 9.70284 15.6283Z" fill="black"/>
<path d="M0.927734 17.5975C1.74898 17.4372 2.5572 17.2883 2.5572 17.2883L2.6601 16.853C2.28924 16.8346 1.55453 16.8432 0.927734 16.8596V17.5975Z" fill="black"/>
<path d="M9.77979 4.59657C10.0668 4.50162 10.4791 4.77989 10.6996 5.21619C10.9201 5.65249 10.8657 6.08485 10.5793 6.17782C10.295 6.27671 9.88437 5.99844 9.66252 5.56017C9.63245 5.50104 9.60906 5.44223 9.58902 5.38441L9.63913 5.37061C9.73101 5.45635 9.84094 5.48001 9.91411 5.43369C10.015 5.36864 10.0043 5.1955 9.91945 5.04601C9.85864 4.9238 9.71798 4.79534 9.60138 4.80519L9.581 4.77924C9.6241 4.69185 9.69025 4.62713 9.77979 4.59657ZM11.7908 8.98584C10.5062 8.70822 9.09954 8.34158 8.3498 7.2574C8.33577 7.23736 8.31037 7.22816 8.28632 7.23473C8.26259 7.2413 8.24555 7.26266 8.24455 7.28697C8.24188 7.34611 8.2499 7.41083 8.26326 7.47555L8.16136 7.51333C7.96357 7.23966 7.92347 6.90685 8.11926 6.668C8.40158 6.32402 8.97425 6.35951 9.31605 6.57141L9.27261 6.66406C9.08919 6.63384 8.91445 6.63383 8.77813 6.71531C8.66219 6.78463 8.64615 6.88747 8.71765 7.01822C9.34044 8.15661 11.151 8.40334 13.3027 8.23874C13.5248 8.22166 13.576 8.1231 13.6047 8.01797C13.7915 7.285 14.1303 6.63186 14.6348 6.13347C14.2425 6.18768 13.8777 6.19984 13.5593 6.21692C12.448 6.28591 11.8125 6.14234 11.6141 5.98662L11.6505 5.89167C11.7688 5.93175 11.8914 5.94062 11.9168 5.90678C11.9515 5.86046 11.9248 5.83154 11.8707 5.78489C11.6598 5.5904 10.7116 4.63501 10.7136 4.64059C10.6111 3.83239 9.41461 3.80348 8.93783 4.59821L8.77579 4.5555C8.8229 4.38105 8.89373 4.23912 8.95989 4.13563C7.96056 4.35772 7.39224 5.23919 7.28933 6.09142C6.8463 9.75265 12.4938 8.90666 14.1075 10.3729C14.1383 10.3966 14.2148 10.504 14.2702 10.436C14.3327 10.2366 13.6217 9.38403 11.7908 8.98584Z" fill="white"/>
<path d="M18.207 14.4708C17.2915 15.048 15.663 15.8427 13.497 15.9922C12.2648 16.0773 10.7767 15.9196 9.70216 15.6262C9.68579 15.9784 9.64937 16.3424 9.58789 16.7094C10.1933 16.8625 11.2718 17.0646 12.8274 17.1076C12.7583 17.5189 12.3333 18.9149 11.2464 19.8174C13.228 19.8992 15.0239 19.1413 15.5518 18.1507C14.9982 18.3222 14.068 18.4993 13.0981 18.4822C13.1495 18.3879 13.199 18.2884 13.2461 18.1826C14.9116 18.1051 16.7489 17.5636 17.1184 16.2206C16.4726 16.6582 15.0459 17.1382 13.5461 17.2167C13.5641 17.1231 13.5792 17.0258 13.5922 16.9263C15.5919 16.6861 17.657 15.8362 18.207 14.4708Z" fill="white"/>
</svg>
